<svg xmlns="http://www.w3.org/2000/svg" xmlns:xlink="http://www.w3.org/1999/xlink" width="512" zoomAndPan="magnify" viewBox="0 0 384 383.999986" height="512" preserveAspectRatio="xMidYMid meet" version="1.0"><defs><g/></defs><rect x="-38.4" width="460.8" fill="#ffffff" y="-38.399999" height="460.799983" fill-opacity="1"/><rect x="-38.4" width="460.8" fill="#ffffff" y="-38.399999" height="460.799983" fill-opacity="1"/><g fill="#9e00ff" fill-opacity="1"><g transform="translate(0.0000072, 241.868477)"><g><path d="M 7.765625 0 L 7.765625 -89.640625 L 26.171875 -89.640625 L 26.171875 -53.484375 L 65.03125 -53.484375 L 65.03125 -89.640625 L 83.4375 -89.640625 L 83.4375 0 L 65.03125 0 L 65.03125 -38.078125 L 26.171875 -38.078125 L 26.171875 0 Z M 7.765625 0 "/></g></g></g><g fill="#9e00ff" fill-opacity="1"><g transform="translate(91.196296, 241.868477)"><g><path d="M 4.09375 -74.234375 L 4.09375 -89.640625 L 77.25 -89.640625 L 77.25 -74.234375 L 49.9375 -74.234375 L 49.9375 0 L 31.515625 0 L 31.515625 -74.234375 Z M 4.09375 -74.234375 "/></g></g></g><g fill="#9e00ff" fill-opacity="1"><g transform="translate(172.587186, 241.868477)"><g><path d="M 44.703125 1.265625 C 37.273438 1.265625 30.796875 -0.0976562 25.265625 -2.828125 C 19.734375 -5.554688 15.429688 -9.375 12.359375 -14.28125 C 9.296875 -19.195312 7.765625 -24.90625 7.765625 -31.40625 L 7.765625 -89.640625 L 26.046875 -89.640625 L 26.046875 -32.90625 C 26.046875 -29.414062 26.816406 -26.316406 28.359375 -23.609375 C 29.910156 -20.898438 32.085938 -18.773438 34.890625 -17.234375 C 37.703125 -15.691406 40.972656 -14.921875 44.703125 -14.921875 C 48.472656 -14.921875 51.75 -15.691406 54.53125 -17.234375 C 57.320312 -18.773438 59.488281 -20.898438 61.03125 -23.609375 C 62.570312 -26.316406 63.34375 -29.414062 63.34375 -32.90625 L 63.34375 -89.640625 L 81.6875 -89.640625 L 81.6875 -31.40625 C 81.6875 -24.90625 80.148438 -19.195312 77.078125 -14.28125 C 74.015625 -9.375 69.707031 -5.554688 64.15625 -2.828125 C 58.601562 -0.0976562 52.117188 1.265625 44.703125 1.265625 Z M 44.703125 1.265625 "/></g></g></g><g fill="#000000" fill-opacity="1"><g transform="translate(258.914049, 241.868477)"><g><path d="M 2.40625 0 L 33.265625 -89.640625 L 57.203125 -89.640625 L 88.671875 0 L 68.21875 0 L 53.90625 -43.3125 C 52.175781 -48.925781 50.414062 -54.988281 48.625 -61.5 C 46.84375 -68.019531 44.953125 -75.191406 42.953125 -83.015625 L 47.15625 -83.015625 C 45.195312 -75.191406 43.375 -68 41.6875 -61.4375 C 40 -54.882812 38.316406 -48.84375 36.640625 -43.3125 L 22.625 0 Z M 21.71875 -20.515625 L 21.71875 -35.015625 L 69.359375 -35.015625 L 69.359375 -20.515625 Z M 21.71875 -20.515625 "/></g></g></g><g fill="#000000" fill-opacity="1"><g transform="translate(349.990027, 241.868477)"><g><path d="M 26.171875 -89.640625 L 26.171875 0 L 7.765625 0 L 7.765625 -89.640625 Z M 26.171875 -89.640625 "/></g></g></g></svg>