<svg xmlns="http://www.w3.org/2000/svg" xmlns:xlink="http://www.w3.org/1999/xlink" width="40" zoomAndPan="magnify" viewBox="0 0 30 30.000001" height="40" preserveAspectRatio="xMidYMid meet" version="1.0"><defs><clipPath id="b09647ba41"><path d="M 0.484375 0 L 29.515625 0 L 29.515625 29.03125 L 0.484375 29.03125 Z M 0.484375 0 " clip-rule="nonzero"/></clipPath></defs><g clip-path="url(#b09647ba41)"><path fill="#ffffff" d="M 22.03125 27.21875 C 21.925781 27.277344 21.929688 27.300781 22.039062 27.246094 C 22.070312 27.230469 22.097656 27.214844 22.121094 27.1875 C 22.121094 27.167969 22.121094 27.171875 22.03125 27.21875 Z M 22.246094 27.105469 C 22.195312 27.144531 22.195312 27.148438 22.257812 27.117188 C 22.292969 27.101562 22.320312 27.082031 22.320312 27.074219 C 22.320312 27.050781 22.304688 27.058594 22.246094 27.105469 Z M 22.390625 27.019531 C 22.339844 27.058594 22.339844 27.0625 22.398438 27.03125 C 22.433594 27.015625 22.460938 26.996094 22.460938 26.988281 C 22.460938 26.964844 22.449219 26.972656 22.390625 27.019531 Z M 22.53125 26.9375 C 22.480469 26.976562 22.480469 26.976562 22.542969 26.945312 C 22.574219 26.929688 22.605469 26.910156 22.605469 26.90625 C 22.605469 26.882812 22.589844 26.886719 22.53125 26.9375 Z M 22.726562 26.808594 C 22.628906 26.871094 22.59375 26.914062 22.683594 26.867188 C 22.746094 26.828125 22.847656 26.753906 22.832031 26.75 C 22.792969 26.765625 22.757812 26.785156 22.726562 26.808594 Z M 14.050781 0.0078125 C 13.984375 0.0117188 13.789062 0.03125 13.609375 0.046875 C 9.484375 0.417969 5.625 2.644531 3.179688 6.0625 C 1.804688 7.96875 0.953125 10.082031 0.617188 12.40625 C 0.5 13.203125 0.484375 13.4375 0.484375 14.519531 C 0.484375 15.601562 0.5 15.835938 0.617188 16.632812 C 1.40625 22.085938 5.285156 26.664062 10.542969 28.363281 C 11.488281 28.664062 12.480469 28.871094 13.609375 28.996094 C 14.050781 29.046875 15.949219 29.046875 16.390625 28.996094 C 18.339844 28.78125 19.992188 28.300781 21.621094 27.46875 C 21.867188 27.339844 21.917969 27.304688 21.882812 27.277344 C 21.085938 26.226562 20.300781 25.171875 19.519531 24.109375 L 17.199219 20.972656 L 14.289062 16.667969 C 13.324219 15.230469 12.347656 13.796875 11.359375 12.367188 C 11.351562 12.367188 11.339844 14.277344 11.332031 16.613281 C 11.324219 20.703125 11.324219 20.867188 11.269531 20.960938 C 11.21875 21.078125 11.136719 21.164062 11.019531 21.21875 C 10.929688 21.265625 10.851562 21.273438 10.421875 21.273438 L 9.929688 21.273438 L 9.800781 21.191406 C 9.71875 21.140625 9.65625 21.070312 9.609375 20.984375 L 9.550781 20.855469 L 9.558594 15.167969 L 9.566406 9.476562 L 9.65625 9.367188 C 9.714844 9.296875 9.785156 9.238281 9.863281 9.195312 C 9.980469 9.136719 10.027344 9.128906 10.519531 9.128906 C 11.097656 9.128906 11.191406 9.152344 11.34375 9.316406 C 12.523438 11.070312 13.6875 12.828125 14.847656 14.59375 C 16.730469 17.449219 19.304688 21.351562 20.574219 23.269531 L 22.871094 26.75 L 22.988281 26.671875 C 24.097656 25.933594 25.09375 25.0625 25.96875 24.058594 C 27.835938 21.917969 28.976562 19.445312 29.386719 16.636719 C 29.5 15.839844 29.515625 15.605469 29.515625 14.523438 C 29.515625 13.441406 29.5 13.207031 29.386719 12.40625 C 28.597656 6.957031 24.71875 2.378906 19.457031 0.679688 C 18.472656 0.367188 17.464844 0.15625 16.433594 0.046875 C 16.164062 0.0195312 14.285156 -0.0117188 14.050781 0.0117188 Z M 19.992188 8.785156 C 20.132812 8.859375 20.230469 8.96875 20.277344 9.121094 C 20.300781 9.195312 20.304688 10.773438 20.300781 14.328125 L 20.292969 19.429688 L 18.488281 16.671875 L 18.488281 12.964844 C 18.488281 10.566406 18.5 9.21875 18.519531 9.152344 C 18.5625 8.996094 18.65625 8.875 18.796875 8.796875 C 18.914062 8.734375 18.957031 8.730469 19.402344 8.730469 C 19.824219 8.730469 19.898438 8.734375 19.992188 8.785156 Z M 19.992188 8.785156 " fill-opacity="1" fill-rule="nonzero"/></g></svg>